<svg width="24" height="24" xmlns="http://www.w3.org/2000/svg">

 <g>
  <title>background</title>
  <rect fill="none" id="canvas_background" height="26" width="26" y="-1" x="-1"/>
 </g>
 <g>
  <title>Layer 1</title>
  <path id="svg_1" d="m12,22c-5.523,0 -10,-4.477 -10,-10s4.477,-10 10,-10c5.523,0 10,4.477 10,10s-4.477,10 -10,10zm0,-18c-4.418,0 -8,3.582 -8,8s3.582,8 8,8c4.418,0 8,-3.582 8,-8s-3.582,-8 -8,-8zm0,14c-0.552,0 -1,-0.448 -1,-1s0.448,-1 1,-1c0.552,0 1,0.448 1,1s-0.448,1 -1,1zm0,-3c-0.552,0 -1,-0.448 -1,-1l0,-6c0,-0.552 0.448,-1 1,-1s1,0.448 1,1l0,6c0,0.552 -0.448,1 -1,1z" fill="#ff6437"/>
 </g>
</svg>